/* XPM */
/*
 *	Copyright (C) 1995 Noriyuki TAKAHASHI
 *
 *	unknown.xpm: battery pixmap for xbatt
 *		Noriyuki TAKAHASHI (nor@aecl.ntt.jp), 95/04/01.
 *
 *	$Id: unknown.xpm,v 1.1 1998/09/11 15:38:44 eto Exp $
 */
static char * ubatt_xpm[] = {
"39 39 13 1",
" 	s None c None",
".	c black",
",	c white",
"#	c black s scale g black",
"X	c darkslategray g black m white",
"o	c lightgrey g gray m black",
"+	c black s plug",
"g	c darkslategray s plug g black m white",
"=	c lightgrey s plug g gray m black",
"O	c yellow s plug g white m white",
"-	c black s spark",
"s	c yellow s spark g white m white",
"?	c red s unknown",
"                     .......           ",
"              ........XXXXX........    ",
"       -   ....XXXXXXXoooooXXXXXXX.... ",
"      -s- ..XXXXoooooXooooXXoooooXXXX..",
"     -ss- .XXooooooooXooXXXXoooooXXXXX.",
"    -ss-  .XXXXXooooooXXXXXooooXXXXXXX.",
"   -sss-  .XX,,XXXXXXXoooooXXXXXXX,,XX.",
"  -sss-   .XX,,,,,,,,XXXXXXX,,,,,,,,XX.",
" -ssss-   .XX,,,,,,,,,,,,,,,,,,,,,,,XX.",
"  -ss-    .XX,,,,,,,,,,,,,,,,,,,###,XX.",
"   -ss-   .XX,,,,,,,,,,,,,,,,,,,,,,,XX.",
"  -ssss-  .XX,,,,,,,,,,,,,,,,,,,,,,,XX.",
"  -sss-   .XX,,,,,,???????,,,,,,###,XX.",
" -sss-    .XX,,,,,?????????,,,,,,,,,XX.",
" -ss-     .XX,,,,???????????,,,,,,,,XX.",
"-ss-      .XX,,,???,,,,,,,???,,,###,XX.",
"-s-       .XX,,,???,,,,,,,???,,,,,,,XX.",
" -        .XX,,,???,,,,,,,???,,,,,,,XX.",
"          .XX,,,,,,,,,,,,,???,,,###,XX.",
" +++  +++ .XX,,,,,,,,,,,,???,,,,,,,,XX.",
" +O+  +O+ .XX,,,,,,,,,,???,,,,,,,,,,XX.",
" +O+  +O+ .XX,,,,,,,,,???,,,,,#####,XX.",
" +O+  +O+ .XX,,,,,,,,???,,,,,,,,,,,,XX.",
"++O++++O++.XX,,,,,,,,???,,,,,,,,,,,,XX.",
"+========+.XX,,,,,,,,???,,,,,,,,###,XX.",
"+========+.XX,,,,,,,,,,,,,,,,,,,,,,,XX.",
"+==gggg==+.XX,,,,,,,,,,,,,,,,,,,,,,,XX.",
"+========+.XX,,,,,,,,???,,,,,,,,###,XX.",
"+==gggg==+.XX,,,,,,,,???,,,,,,,,,,,,XX.",
"+========+.XX,,,,,,,,???,,,,,,,,,,,,XX.",
"++======++.XX,,,,,,,,,,,,,,,,,,,###,XX.",
" ++====++ .XX,,,,,,,,,,,,,,,,,,,,,,,XX.",
"  +gggg+  .XX,,,,,,,,,,,,,,,,,,,,,,,XX.",
"  ++==+   .XX,,,,,,,,,,,,,,,,,,,###,XX.",
"   +==+   ..XXX,,,,,,,,,,,,,,,,,,,XXX..",
"  ++==+    ..XXXXXXX,,,,,,,,,XXXXXXX.. ",
" ++===+     ...XXXXXXXXXXXXXXXXXXX...  ",
" +===++       ......XXXXXXXXX......    ",
" +++++             ...........         "};
