#define digit7_width 3
#define digit7_height 5
static unsigned char digit7_bits[] = {
   0x07, 0x04, 0x04, 0x02, 0x02};
