#define digit2_width 3
#define digit2_height 5
static unsigned char digit2_bits[] = {
   0x07, 0x04, 0x07, 0x01, 0x07};
