#define digit1_width 3
#define digit1_height 5
static unsigned char digit1_bits[] = {
   0x02, 0x02, 0x02, 0x02, 0x02};
