#define digit9_width 3
#define digit9_height 5
static unsigned char digit9_bits[] = {
   0x07, 0x05, 0x07, 0x04, 0x07};
