#define full_width 11
#define full_height 5
static unsigned char full_bits[] = {
   0x87, 0x02, 0x81, 0x02, 0xab, 0x02, 0xa9, 0x02, 0xb9, 0x02};
